<?xml version="1.0" standalone="no"?>
<!DOCTYPE svg PUBLIC "-//W3C//DTD SVG 20010904//EN"
 "http://www.w3.org/TR/2001/REC-SVG-20010904/DTD/svg10.dtd">
<svg version="1.0" xmlns="http://www.w3.org/2000/svg"
 width="1200.000000pt" height="1200.000000pt" viewBox="0 0 1200.000000 1200.000000"
 preserveAspectRatio="xMidYMid meet">

<g transform="translate(0.000000,1200.000000) scale(0.100000,-0.100000)"
fill="#000000" stroke="none">
<path d="M1976 10350 c-64 -25 -103 -63 -132 -128 -31 -69 -32 -150 -1 -210
12 -23 691 -950 1509 -2059 l1488 -2017 0 -2046 c0 -1841 2 -2052 16 -2100 9
-29 23 -64 31 -77 25 -38 93 -71 168 -83 108 -17 2487 -9 2538 8 21 8 56 29
77 48 76 69 70 -156 70 2581 l0 2454 1211 1636 c676 914 1217 1654 1225 1676
55 156 -53 321 -219 334 -82 7 -136 -9 -185 -55 -23 -20 -539 -712 -1148
-1537 -608 -825 -1114 -1508 -1123 -1517 -15 -16 -88 80 -1130 1497 -613 834
-1131 1531 -1152 1550 -77 69 24 65 -1668 65 -1479 -1 -1528 -2 -1575 -20z
m4102 -2056 l1152 -1565 0 -2295 0 -2294 -940 0 -940 0 -2 1973 -3 1972 -25
40 c-22 36 -2653 3609 -2722 3698 l-30 37 1179 -1 1178 0 1153 -1565z"/>
</g>
</svg>
